<?xml version="1.0" encoding="utf-8"?>
<!-- Generator: Adobe Illustrator 23.0.6, SVG Export Plug-In . SVG Version: 6.00 Build 0)  -->
<svg version="1.1" id="Layer_1" xmlns="http://www.w3.org/2000/svg" xmlns:xlink="http://www.w3.org/1999/xlink" x="0px" y="0px"
	 viewBox="0 0 141.7 141.7" style="enable-background:new 0 0 141.7 141.7;" xml:space="preserve">
<style type="text/css">
	.st0{fill:#74C923;}
	.st1{fill:#71C11B;}
	.st2{fill:#603813;}
	.st3{fill:#894F24;}
	.st4{fill:#156407;}
	.st5{fill:#00890A;}
	.st6{fill:#82D32D;}
	.st7{fill:none;stroke:#B8F76F;stroke-width:4;stroke-linecap:round;stroke-linejoin:round;stroke-miterlimit:10;}
</style>
<g>
	<path class="st0" d="M68.9,47.9c-12.1-16.1-39.6-6.2-45.6,11.1c-11.9,32.6,13.4,63.4,56.3,58.8c28.3-3,41.7-26.5,37.5-55.4
		c-3.5-23.7-42.4-40.4-51.3-15.9"/>
	<path class="st1" d="M117.1,62.5c0-0.3-1.3-6.2-2.2-6.9c-1.3-0.9-2.4,3.5-2.4,3.2c-8.1,30.7-31.6,53.7-62,50.5
		c-6.1-0.6-11.9-2.2-17.3-4.6c10.4,9.8,26.5,15.3,46.5,13.2C107.9,114.8,121.3,91.4,117.1,62.5z"/>
	<path class="st1" d="M63.7,43c0,0,15.5-6,21.9-2.8c6.5,3.2,26.5,11.6,26.5,11.6s1.7,1.7,2.8,3.7c1.1,1.9,1.6,4.3,1.6,4.3
		s-11.6,2.2-20.3-1.2c-6.6-2.6-13-8-15.3-13c0,0-14.7,2.7-18-0.7c-0.9-0.9-9.5-2.8-8.9-4.3C54.6,38.8,63.7,43,63.7,43z"/>
	<g>
		<path class="st2" d="M69.5,42c1.6,0.4,0.5,3-2.9,3.2c-3.3,0.2-4.5-0.6-3.2-1.7c1.3-1.2,2-7.1,4-13.8c0.6-2.1,0.6-4.9,3.1-6
			c2.1-0.9,6,0.2,3.2,3.1c-0.2,0.2-2.3,3-1.8,3.7c0.6,0.8,3.7-0.6,4,0c0.5,1.2,0.4,0.7,0,1.1c-1.4,1.7-4.5,0.3-4.9,1.8
			C69.7,37.8,68.4,41.8,69.5,42z"/>
		<path class="st3" d="M74.5,24.4c0,0-1.5,1.2-3.1,1.1c-2.1-0.1-3,3.9-3,3.9s-3,9.7-4,15.3c-0.1,0.4-1.2-0.1-1.4-0.5
			c-0.1-0.3,0.9-1.1,0.9-1.1l4.5-17.3c1.1-1.8,2.2-2.3,3.7-2.3C73.5,23.4,74.5,24.4,74.5,24.4z"/>
		<path class="st4" d="M74.7,30.5c1,14.9,20.3,35,46.7,20.4C121.4,50.9,103.2,16.7,74.7,30.5z"/>
		<path class="st5" d="M81.4,35.1c9.5,5.1,23.7,14.3,38.9,15.8c0,0-8.8,6.3-19.1,5.2c-17.9-1.9-23-12.1-25-17.7
			c-1.4-4.1-1.6-7.6-1.6-7.6S79.6,34.1,81.4,35.1z"/>
	</g>
	
		<ellipse transform="matrix(0.3537 -0.9354 0.9354 0.3537 -38.5186 77.8188)" class="st6" cx="37.1" cy="66.8" rx="20.3" ry="13.2"/>
	<g>
		<path class="st7" d="M28.9,63.6c-1.6,2.8-2.6,6.9-2.8,11.3"/>
		<path class="st7" d="M36.7,53.3c0,0-2.5,1.5-5.1,5"/>
	</g>
</g>
</svg>
