<?xml version="1.0" encoding="utf-8"?>
<!-- Generator: Adobe Illustrator 23.0.6, SVG Export Plug-In . SVG Version: 6.00 Build 0)  -->
<svg version="1.1" id="Layer_1" xmlns="http://www.w3.org/2000/svg" xmlns:xlink="http://www.w3.org/1999/xlink" x="0px" y="0px"
	 viewBox="0 0 141.7 141.7" style="enable-background:new 0 0 141.7 141.7;" xml:space="preserve">
<style type="text/css">
	.st0{fill:#FFC916;}
	.st1{fill:#FFD95C;}
	.st2{fill:#FEBC12;}
	.st3{fill:#C28851;}
	.st4{fill:#BC7D4A;}
	.st5{fill:none;stroke:#FFE18D;stroke-width:2;stroke-linecap:round;stroke-linejoin:round;stroke-miterlimit:10;}
</style>
<g>
	<path class="st0" d="M16.6,87.8c-1.3,1.6-4.4,4.9-4.4,4.9s12.2,28.7,53.5,27.7c24.3-0.5,44.2-9.3,56-29.4
		c11.8-20.1,7.9-33.1,4.2-38.3c-3.7-5.2-7.2-6.9-10.2-14.7c-3.1-7.8-3.7-12.8-3.7-12.8c0.4-3.7-2.8-3.6-2.8-3.6
		c-4.8,2.2-7.6,4-6.3,5.9c1.3,2,5.3,8.4,5.1,16.3c-0.2,7.9-1.6,28.5-20.9,38.2c-17.5,8.8-30.9,8.5-41.3,6.9
		C35.3,87.3,17.9,86.2,16.6,87.8z"/>
	<g>
		<g>
			<path class="st1" d="M41,96.6c10.6,1.7,30.9,1.1,48.9-8c19.8-10,22.2-31.3,22.4-39.4c0.1-7-5.7-21-7.9-25.4
				c-1,0.7-1.2,1.3-1.6,1.9c-0.3,0.4-0.9,0.8-0.5,1.3c1.3,2,5.6,8.9,5.5,16.9c-0.2,7.9-1.6,28.5-20.9,38.2
				c-17.5,8.8-30.9,8.5-41.3,6.9c-10.3-1.6-27.8-2.7-29.1-1.1c-0.3,0.3-0.7,0.8-1.1,1.2C21.1,91.9,33.1,95.3,41,96.6z"/>
		</g>
	</g>
	<path class="st2" d="M125.8,52.6c-3.7-5.2-7.2-6.9-10.2-14.7c-3.1-7.8-3.5-13.7-3.5-13.7c0.1-2.1-0.9-2-1.7-2.2
		c-0.8-0.2-1.4-0.7-1.4-0.7c-0.3,0.1-0.6,0.3-0.9,0.4c1.3,4,3,9.1,4.6,13.1c3.1,7.8,3.7,11.6,7.5,16.8s8.5,16.4-3.3,36.5
		C105,108.2,85,117,60.8,117.5c-13.8,0.3-24.4-2.7-32.3-6.9c8.3,5.5,20.3,10.1,37.2,9.8c24.3-0.5,44.2-9.3,56-29.4
		C133.4,70.9,129.5,57.8,125.8,52.6z"/>
	<path class="st3" d="M105.7,23c0.8-0.3,2.6-1.5,3.5-1.5c1.7,0.1,3.6,0.9,2.4,2.1c-1.2,1.2-3,0.9-4.1,1.7c-1.2,0.8-5.5,1.6-5.2,1
		C102.8,25.3,104.6,23.3,105.7,23z"/>
	<path class="st3" d="M14.7,88.9c0.8-0.3,2.5-1.8,3.4-1.8c1.7,0.1-0.6,0-1.8,1.2c-1.7,1.7-1.2,1.2-2,2.3c-0.7,1-2.4,2.5-2.1,1.9
		C12.9,91.4,13.6,89.3,14.7,88.9z"/>
	<path class="st4" d="M104,25.8c1-0.6,2.3-2.6,3.5-3.3c1.3-0.7,3.8-0.4,3.8-0.4s-1.5-0.8-2.4-0.8c-0.4,0-0.9,0-3.4,1.6
		c-2.6,1.6-4,3.6-3.2,3.6S103.6,26,104,25.8z"/>
	<path class="st5" d="M48.6,94.9c-9.1-0.2-21.6-3.6-21.6-3.6"/>
	<path class="st5" d="M100.8,72.9c-3.2,4-7.6,7.8-13.7,11"/>
	<path class="st5" d="M109.5,49.8c0,0,0.3,7.1-3.8,15.5"/>
</g>
</svg>
