<?xml version="1.0" encoding="utf-8"?>
<!-- Generator: Adobe Illustrator 23.0.6, SVG Export Plug-In . SVG Version: 6.00 Build 0)  -->
<svg version="1.1" id="Layer_1" xmlns="http://www.w3.org/2000/svg" xmlns:xlink="http://www.w3.org/1999/xlink" x="0px" y="0px"
	 viewBox="0 0 141.7 141.7" style="enable-background:new 0 0 141.7 141.7;" xml:space="preserve">
<style type="text/css">
	.st0{fill:#EBA031;}
	.st1{fill:#F0B54F;}
	.st2{fill:#DE8C31;}
	.st3{fill:#FFF5DB;}
	.st4{fill:#D67C22;}
	.st5{fill:#F5E3A2;}
	.st6{fill:none;stroke:#DE8C31;stroke-width:1.0441;stroke-linecap:round;stroke-linejoin:round;stroke-miterlimit:10;}
</style>
<g>
	<path class="st0" d="M7.4,45.6C8.6,50.3,9.9,55,9.9,55c0.3,3.1,0,20.9,0,20.9s-0.3,4.4,5,6.9s18.8,3.8,25.3,4.7s15.9,3.1,18.4,4.1
		c2.5,0.9,12.8,4.1,14.1,3.8c1.3-0.3,4.4-0.9,12.2-6.9c7.8-5.9,19.7-14.1,20-15.9s-0.9-16.3-0.6-20.9c0.3-4.7,2.8-11.3,1.6-13.8
		c-1.3-2.5-3.1-7.5-15.3-13.1s-35.9-8.8-46.6-6.9s-18.8,5.9-24.1,9.4S6.1,40.9,7.4,45.6z"/>
	<path class="st1" d="M14,53.6c0,0-5-0.6-5.9-4.7c-1.4-6-0.8-4.4,10.8-2.4c4,0.7,47.1,1.3,46.6,7.1c-0.3,3.1,2.9,7.7,3.1,7.9
		c0.9,1.3,0.5,8.6,0.5,8.6S53.9,62,42,58.5C30.1,55.1,14,53.6,14,53.6z"/>
	<path class="st2" d="M7.4,45.6c1.3,4.7,9.7,0.1,12.2,1.9c2.6,1.8,46.6,10.9,46.9,9.1S83.6,38.7,84,34c0.3-4.7,23.1,6.3,21.9,3.8
		c-1.3-2.5-3.1-7.5-15.3-13.1s-35.9-8.8-46.6-6.9s-18.8,5.9-24.1,9.4S6.1,40.9,7.4,45.6z"/>
	<g>
		<path class="st3" d="M72.5,94.8c-1.7,0-1.9-4.1-2.1-7.3c-0.1-1.4-0.2-2.7-0.3-3.8c-0.4-2.5-0.4-8.1-0.4-12.9c0-3.4,0-6.4-0.2-7.7
			c-0.1-1.5-0.7-1.9-1.2-2.4c-0.6-0.5-1.5-1.3-2.2-5.1c-1.2-6.6,6.5-15.9,9.9-19.6c1.8-1.9,3.1-2.3,4-2.3c0.6,0,1,0.2,1,0.2L81,34
			l0.2,0c0.1,0,1.7-0.4,4.9-2.6c1.6-1.1,4.1-1.8,6.9-1.8c1.5,0,3,0.2,3.9,0.6c3.2,1.2,7.2,3.6,8.4,8.4c1.2,4.8-0.9,10.9-0.9,11
			l0,0.1l0,0.1c0,0.7-0.3,17,0,21.3c0.2,3.1-7.8,8.6-10.8,10.7c-0.7,0.5-1.3,0.9-1.5,1.1c-1.7,1.4-16.6,11.8-19.4,12.1
			C72.6,94.8,72.6,94.8,72.5,94.8z"/>
		<path class="st2" d="M93,30.1c1.4,0,2.8,0.2,3.7,0.5c3.1,1.2,7,3.5,8.1,8c1.2,4.6-0.9,10.6-0.9,10.7l-0.1,0.2l0,0.2
			c0,0.7-0.3,17,0,21.3c0.2,2.8-7.9,8.4-10.5,10.2c-0.7,0.5-1.3,0.9-1.6,1.1C89.6,84,75.2,94,72.6,94.3c0,0-0.1,0-0.1,0
			c-1.2,0-1.4-4.3-1.6-6.8c-0.1-1.4-0.2-2.7-0.3-3.8c-0.4-2.5-0.4-8.2-0.4-12.9c0-3.4,0-6.4-0.2-7.7c-0.2-1.6-0.7-2.2-1.4-2.7
			c-0.6-0.5-1.4-1.2-2.1-4.8C65.4,49,73,39.9,76.3,36.3c1.3-1.4,2.6-2.2,3.6-2.2c0.4,0,0.7,0.1,0.7,0.1c0,0,0,0,0,0l0.4,0.3l0.4-0.1
			c0.2,0,1.9-0.4,5.1-2.7C87.9,30.7,90.4,30.1,93,30.1 M93,29.1c-2.5,0-5.3,0.5-7.2,1.8c-3.1,2.2-4.7,2.5-4.7,2.5s-0.5-0.3-1.3-0.3
			c-1,0-2.5,0.5-4.4,2.5c-3.4,3.8-11.3,13.1-10,20c1.3,6.9,3.1,4.4,3.4,7.5c0.3,3.1,0,16.3,0.6,20.6c0.6,4.3,0,11.6,2.9,11.6
			c0.1,0,0.1,0,0.2,0c3.1-0.3,18.1-10.9,19.7-12.2c1.6-1.3,12.8-8.1,12.5-12.2c-0.3-4.4,0-21.3,0-21.3s2.2-6.3,0.9-11.3
			c-1.2-4.6-4.9-7.3-8.8-8.8C96.1,29.3,94.6,29.1,93,29.1L93,29.1z"/>
	</g>
	<path class="st4" d="M75.5,36.5c0,0-15.9-7.5-29.4-9.7c-12-2-18.8-3.4-18.8-3.4s15.3-1.9,33.8,1.3c7.9,1.3,23.8,5.9,24.7,6.9
		s-3.4,3.8-4.7,2.8C79.5,33.1,75.5,36.5,75.5,36.5z"/>
	<ellipse class="st5" cx="79.4" cy="51" rx="1" ry="1.9"/>
	<ellipse class="st5" cx="87" cy="41.2" rx="0.8" ry="1.5"/>
	<ellipse class="st5" cx="74.4" cy="71.6" rx="0.8" ry="1.5"/>
	<ellipse class="st5" cx="97.4" cy="68.2" rx="0.8" ry="1.5"/>
	<ellipse class="st5" cx="88.3" cy="80.3" rx="0.8" ry="1.5"/>
	<ellipse class="st5" cx="81.6" cy="73.2" rx="0.8" ry="1.5"/>
	<ellipse class="st5" cx="93.5" cy="62" rx="0.5" ry="1"/>
	<ellipse class="st5" cx="80" cy="79.9" rx="0.5" ry="1"/>
	<ellipse class="st5" cx="99" cy="36.9" rx="0.5" ry="1"/>
	<path class="st5" d="M67.9,59.5c0,0-2.7-7.7,2.2-13.6c5.8-7,6.5-8.8,8.2-10.1c1.8-1.2,6-0.5,9.5-2.5c5.8-3.4,5.4-2.6,8-2.1
		c6,1.1,8.5,6.4,8.5,6.4s-2.1-10.8-15.9-6.7c-4.6,1.3-1.2,2.3-6,3.5c-1.2,0.3-2.4-1.4-4.9,0.8C73.9,38.6,67,47,66.7,52.8
		C66.4,57.9,67.9,59.5,67.9,59.5z"/>
	<g>
		<path class="st2" d="M127.7,101.5l6.7-2.5c0,0,0.3,5.2-0.6,10.2s-2.8,8.1-5.2,9.3c-5.5,2.8-16.2,5.7-20.2,5c-4-0.7-5.1-1.7-6.9-2
			c-5.2-0.8-13.2,1.3-18.2,2s-12.2,2-14.9,0.2c-2.4-1.6-2.7-11.3-2.7-11.3C68.7,109.8,127.7,101.5,127.7,101.5z"/>
		<path class="st0" d="M98.4,109.1l2.1,3c0,0,3.3,5,5,8.7c1.6,3.5-2.1,0.9-3.9,0.6c-5.2-0.8-13.2,1.3-18.2,2s-12.2,2-14.9,0.2
			c-2.4-1.6-2.7-11.6-2.7-11.6C68.7,109.5,98.4,109.1,98.4,109.1z"/>
		<path class="st1" d="M98.4,109.1l6.1,4c0,0,1.4,7.1,2.5,9.2c0.9,1.7-1.7,0.1-2.7,0c-1.1-0.1-2.1-1.6-2.8-3.5
			c-1.9-4.5-6.4-8.5-9.1-10.3c-2.4-1.6,0.3-1.2,0.3-1.2C95.4,104.9,98.4,109.1,98.4,109.1z"/>
		<g>
			<path class="st3" d="M106,113.4c-1.9,0-2.4-0.7-3.2-2.1c-0.6-0.9-2.3-1.3-5.6-1.3c-3.7,0-8.7,0.5-12.7,1
				c-1.2,0.1-2.4,0.3-3.4,0.4c-1.3,0.1-2.7,0.3-4,0.4c-3,0.3-5.8,0.6-7.9,0.6c-1.9,0-2.7-0.3-2.9-0.5c-0.1-0.9,5.7-4.7,10-6.3
				c1.8-0.6,4.7-2.5,7.5-4.3c2.4-1.5,4.8-3.1,6.4-3.8c1.3-0.6,3-0.9,5-0.9c2.2,0,4.1,0.4,4.1,0.4c0.2,0,8.8,0.2,14.2,0.3l0.2,0
				c2.6,0,5.3-0.5,7.9-1.1c2.3-0.5,4.5-0.9,6.4-0.9c0.4,0,0.7,0,1.1,0.1c2.1,0.2,3.8,1.2,4.5,2.6c0.7,1.5,0.4,3.3-0.9,5.3
				c-2.3,3.6-7.9,5.2-14.3,7.1c-1.7,0.5-3.5,1-5.3,1.6C109.7,112.9,107.5,113.4,106,113.4z"/>
			<path class="st0" d="M127.9,95.7L127.9,95.7c0.4,0,0.7,0,1,0c1.9,0.2,3.4,1.1,4.1,2.4c0.6,1.3,0.3,2.9-0.9,4.7
				c-2.2,3.4-7.7,5-14,6.9c-1.7,0.5-3.5,1-5.3,1.6c-3.2,1.1-5.4,1.5-6.8,1.5c-1.6,0-2-0.6-2.8-1.8c-0.7-1.1-2.5-1.6-6.1-1.6
				c-3.7,0-8.8,0.5-12.8,1c-1.2,0.1-2.4,0.3-3.4,0.4c-1.3,0.1-2.7,0.3-4,0.4c-3,0.3-5.8,0.6-7.9,0.6c-1.2,0-1.9-0.1-2.2-0.2
				c1.1-1.3,6.2-4.4,9.5-5.5c1.8-0.7,4.6-2.5,7.6-4.4c2.3-1.5,4.8-3.1,6.4-3.8c1.2-0.5,2.8-0.8,4.8-0.8c2.2,0,4,0.3,4,0.3l0.1,0
				l0.1,0c0.1,0,8.7,0.2,14.1,0.3l0.2,0c2.7,0,5.4-0.6,8-1.1C123.9,96.2,126,95.7,127.9,95.7 M127.9,94.7c-4.2,0-9.4,2-14.3,2
				c-0.1,0-0.1,0-0.2,0c-5.5-0.1-14.1-0.3-14.1-0.3S97.4,96,95.1,96c-1.7,0-3.7,0.2-5.3,0.9c-3.6,1.7-10.7,7-13.9,8.2
				c-3.2,1.1-11.7,5.8-10.1,7.2c0.5,0.5,1.7,0.6,3.3,0.6c3,0,7.6-0.6,12-1.1c4.2-0.4,11.3-1.3,16.1-1.3c2.7,0,4.7,0.3,5.2,1.1
				c0.8,1.3,1.5,2.3,3.6,2.3c1.5,0,3.7-0.5,7.1-1.6c8.4-2.8,16.8-4.2,19.9-8.9c3.1-4.7,0.4-8.3-4-8.7
				C128.7,94.7,128.3,94.7,127.9,94.7L127.9,94.7z"/>
		</g>
		<path class="st6" d="M104.9,113.4c1,1.3,9.7-1.6,11.1-2.2c8.3-3.1,13.3-3.1,16.4-7.9c3.1-4.7,0.4-7.9-4-8.3"/>
		
			<ellipse transform="matrix(0.9954 -9.590583e-02 9.590583e-02 0.9954 -9.2742 11.5206)" class="st5" cx="115.2" cy="102.2" rx="1.6" ry="0.8"/>
		
			<ellipse transform="matrix(0.9954 -9.590583e-02 9.590583e-02 0.9954 -9.3977 12.2783)" class="st5" cx="123" cy="103.9" rx="1.2" ry="0.7"/>
		
			<ellipse transform="matrix(0.9954 -9.590583e-02 9.590583e-02 0.9954 -9.1109 9.7807)" class="st5" cx="97.2" cy="99.7" rx="1.2" ry="0.7"/>
		
			<ellipse transform="matrix(0.9954 -9.590583e-02 9.590583e-02 0.9954 -9.9794 10.8042)" class="st5" cx="107.4" cy="109.2" rx="1.2" ry="0.7"/>
		
			<ellipse transform="matrix(0.9954 -9.590583e-02 9.590583e-02 0.9954 -9.9768 7.9237)" class="st5" cx="77.4" cy="107.7" rx="1.2" ry="0.7"/>
		
			<ellipse transform="matrix(0.9954 -9.590583e-02 9.590583e-02 0.9954 -9.7176 9.7353)" class="st5" cx="96.4" cy="106" rx="1.2" ry="0.7"/>
		
			<ellipse transform="matrix(0.9954 -9.590583e-02 9.590583e-02 0.9954 -9.2731 10.7029)" class="st5" cx="106.7" cy="101.8" rx="0.8" ry="0.4"/>
		
			<ellipse transform="matrix(0.9954 -9.590583e-02 9.590583e-02 0.9954 -9.6666 9.1678)" class="st5" cx="90.5" cy="105.1" rx="0.8" ry="0.4"/>
		
			<ellipse transform="matrix(0.9954 -9.590583e-02 9.590583e-02 0.9954 -9.1778 12.6947)" class="st5" cx="127.5" cy="101.8" rx="0.8" ry="0.4"/>
	</g>
	<path class="st2" d="M63.1,115.3l3.2,0.8l0.5,4.1c0,0,12.7-2.7,18.4-5.1s10.5-5.1,10.5-5.1l-8.7-2.2L63.1,115.3z"/>
	<path class="st5" d="M125.6,96.1c0,0-0.1,1.9-1.7,5.4c-1.5,3.3-3.9,7.7-8,8.9c-1.4,0.4-6.3,2-8.9,2.4c-2.6,0.4-2.9-0.4-3.1-1.1
		c-1.1-3-9.2-2.2-11.4-2.1c-9.5,0.3-14.3-0.2-14.3-0.2l43.2-13L125.6,96.1z"/>
	<g>
		<path class="st2" d="M116.2,83.1l5.9-4.1c0,0,1.6,5,1.9,10c0.3,5-0.8,8.5-2.8,10.3c-4.7,4.1-14.4,9.4-18.4,9.7
			c-4.1,0.3-5.4-0.5-7.2-0.3c-5.3,0.4-12.5,4.4-17.2,6.3S67,119.9,64,118.7c-2.7-1-5.3-10.3-5.3-10.3
			C60.8,105.3,116.2,83.1,116.2,83.1z"/>
		<path class="st0" d="M89.5,97.6l2.7,2.4c0,0,4.4,4.1,7,7.3c2.4,3-1.9,1.4-3.7,1.5c-5.3,0.4-12.5,4.4-17.2,6.3S67,119.9,64,118.7
			c-2.7-1-5.4-10.6-5.4-10.6C60.8,105,89.5,97.6,89.5,97.6z"/>
		<path class="st1" d="M89.5,97.6l6.8,2.5c0,0,3,6.5,4.6,8.3c1.3,1.4-1.7,0.5-2.7,0.6c-1.1,0.1-2.4-1.1-3.6-2.7
			c-2.9-3.9-8.3-6.7-11.3-7.8c-2.7-1,0-1.2,0-1.2C85.7,94.1,89.5,97.6,89.5,97.6z"/>
		<g>
			<path class="st3" d="M59.7,108.1c-0.4,0-0.7-0.1-0.8-0.1c-0.3-0.8,4.4-6,8.2-8.5c1.6-1,4-3.6,6.3-6c1.9-2,3.9-4.1,5.3-5.3
				c3-2.4,8.7-2.7,8.8-2.7c0.2,0,8.6-1.9,13.8-3.1c2.6-0.6,5.1-1.8,7.6-3c2.5-1.2,4.9-2.3,7.1-2.6c0.4-0.1,0.7-0.1,1.1-0.1
				c1.8,0,3.2,0.6,4,1.8c0.9,1.3,1,3,0.2,5.1c-1.4,4-6.4,6.9-12.2,10.3c-1.6,0.9-3.2,1.8-4.8,2.8c-3.7,2.3-6,3.3-7.5,3.3
				c-1.1,0-1.7-0.5-2.5-1.4c-0.4-0.4-1-0.6-1.9-0.6c-3.4,0-10.4,2.5-16,4.6c-1.2,0.4-2.3,0.8-3.2,1.2c-1.3,0.4-2.5,0.9-3.8,1.4
				C65.4,106.7,61.6,108.1,59.7,108.1C59.7,108.1,59.7,108.1,59.7,108.1z"/>
			<path class="st0" d="M117,77.2c1.6,0,2.9,0.6,3.6,1.6c0.8,1.1,0.8,2.7,0.2,4.6c-1.4,3.8-6.3,6.7-12,10.1
				c-1.6,0.9-3.2,1.9-4.8,2.9c-3.6,2.2-5.8,3.3-7.2,3.3c-0.8,0-1.3-0.4-2.1-1.2c-0.5-0.5-1.2-0.7-2.3-0.7c-3.5,0-10.5,2.6-16.2,4.6
				c-1.2,0.4-2.3,0.8-3.2,1.2c-1.3,0.4-2.5,0.9-3.8,1.4c-3.8,1.4-7.7,2.8-9.6,2.8c-0.1,0-0.1,0-0.2,0c0.8-1.5,4.8-5.6,7.8-7.6
				c1.6-1.1,3.9-3.5,6.3-6.1c1.9-2,3.9-4.1,5.3-5.2c2.8-2.3,8.4-2.6,8.5-2.6l0.1,0l0.1,0c0.1,0,8.5-1.9,13.8-3.1
				c2.7-0.6,5.2-1.8,7.7-3c2.5-1.2,4.8-2.3,6.9-2.6C116.3,77.2,116.7,77.2,117,77.2 M117,76.1c-0.4,0-0.8,0-1.2,0.1
				c-4.4,0.6-9.4,4.4-14.7,5.6C95.8,83.1,87.4,85,87.4,85s-5.9,0.3-9.1,2.8c-3.1,2.5-8.8,9.4-11.6,11.3c-2.8,1.9-10,8.4-8.1,9.4
				c0.3,0.1,0.6,0.2,1,0.2c2.6,0,8.3-2.4,13.7-4.2c5.3-1.9,15.1-5.7,19.1-5.7c0.7,0,1.3,0.1,1.5,0.4c0.9,0.9,1.6,1.5,2.9,1.5
				c1.5,0,3.7-0.9,7.7-3.4c7.5-4.7,15.3-8.1,17.2-13.4C123.5,78.9,120.8,76.1,117,76.1L117,76.1z"/>
		</g>
		<path class="st6" d="M96.9,100.2c1.2,1.1,9-3.9,10.3-4.8c7.3-5,12.1-6.2,14-11.5s-1.5-7.7-5.9-7.1"/>
		
			<ellipse transform="matrix(0.9436 -0.3311 0.3311 0.9436 -22.8761 39.4109)" class="st5" cx="104.2" cy="86.8" rx="1.6" ry="0.8"/>
		
			<ellipse transform="matrix(0.9436 -0.3311 0.3311 0.9436 -22.3408 42.0427)" class="st5" cx="112.2" cy="86.6" rx="1.2" ry="0.7"/>
		<ellipse transform="matrix(0.9436 -0.3311 0.3311 0.9436 -24.4983 33.5164)" class="st5" cx="86.1" cy="88.7" rx="1.2" ry="0.7"/>
		<ellipse transform="matrix(0.9436 -0.3311 0.3311 0.9436 -26.071 37.9414)" class="st5" cx="98.3" cy="95.5" rx="1.2" ry="0.7"/>
		
			<ellipse transform="matrix(0.9436 -0.3311 0.3311 0.9436 -29.6326 28.5148)" class="st5" cx="68.9" cy="101.2" rx="1.2" ry="0.7"/>
		<ellipse transform="matrix(0.9436 -0.3311 0.3311 0.9436 -26.5393 34.1201)" class="st5" cx="86.9" cy="94.9" rx="1.2" ry="0.7"/>
		<ellipse transform="matrix(0.9436 -0.3311 0.3311 0.9436 -23.8859 36.7343)" class="st5" cx="95.9" cy="88.5" rx="0.8" ry="0.4"/>
		<ellipse transform="matrix(0.9436 -0.3311 0.3311 0.9436 -27.0758 32.2003)" class="st5" cx="81" cy="95.6" rx="0.8" ry="0.4"/>
		<ellipse transform="matrix(0.9436 -0.3311 0.3311 0.9436 -21.1053 43.1324)" class="st5" cx="116" cy="83.5" rx="0.8" ry="0.4"/>
	</g>
</g>
</svg>
