<?xml version="1.0" encoding="utf-8"?>
<!-- Generator: Adobe Illustrator 23.0.6, SVG Export Plug-In . SVG Version: 6.00 Build 0)  -->
<svg version="1.1" id="Layer_1" xmlns="http://www.w3.org/2000/svg" xmlns:xlink="http://www.w3.org/1999/xlink" x="0px" y="0px"
	 viewBox="0 0 141.7 141.7" style="enable-background:new 0 0 141.7 141.7;" xml:space="preserve">
<style type="text/css">
	.st0{fill:#E5A673;}
	.st1{fill:#DD9B6B;}
	.st2{fill:none;stroke:#F2B891;stroke-width:4;stroke-linecap:round;stroke-linejoin:round;stroke-miterlimit:10;}
</style>
<g>
	<path class="st0" d="M110.6,73.7c0,27.8-17.8,50.3-39.8,50.3c-22,0-39.8-22.5-39.8-50.3c0-27.8,17.8-56.1,39.8-56.1
		C92.8,17.7,110.6,45.9,110.6,73.7z"/>
	<path class="st1" d="M90.9,26c6.8,10.4,11,24,11,37.5c0,27.8-17.8,50.3-39.8,50.3c-8.3,0-16-3.2-22.3-8.7c7.3,11.6,18.5,19,31.1,19
		c22,0,39.8-22.5,39.8-50.3C110.6,55.2,102.7,36.4,90.9,26z"/>
	<path class="st2" d="M43.8,46c-3.5,7.1-5.5,14.6-5.3,20"/>
	<path class="st2" d="M52.8,32.8c-1.6,1.4-3.6,4-5.6,7.3"/>
</g>
</svg>
