<?xml version="1.0" encoding="utf-8"?>
<!-- Generator: Adobe Illustrator 23.0.6, SVG Export Plug-In . SVG Version: 6.00 Build 0)  -->
<svg version="1.1" id="Layer_1" xmlns="http://www.w3.org/2000/svg" xmlns:xlink="http://www.w3.org/1999/xlink" x="0px" y="0px"
	 viewBox="0 0 141.7 141.7" style="enable-background:new 0 0 141.7 141.7;" xml:space="preserve">
<style type="text/css">
	.st0{fill:#E5B335;}
	.st1{fill:#D19F2F;}
	.st2{fill:#E0AA3F;}
</style>
<g>
	<path class="st0" d="M23.4,62.5c6.4-9.2,19.5-14.8,39.2-19.5c19.5-4.8,27.8-8.8,43.1-3.4c3.3,1.2,27.6,18.6,10.6,36.5
		c-17.1,17.9-60,44.4-89.8,16.9C15.7,83,19.6,68,23.4,62.5z"/>
	<g>
		<g>
			<path class="st1" d="M94.8,56.9c0.1,0,0.1,0,0.2-0.1c0,0,0.1,0,0.1,0C95.3,56.8,94.7,56.9,94.8,56.9c0.2,0,0.2-0.1,0.3-0.1
				C95.2,56.9,95.3,56.9,94.8,56.9c0.1-0.1,0.1-0.1,0.2-0.1c0.1,0,0.1,0,0.2,0c0.3,0-0.3-0.1-0.1,0c0.1,0,0.2,0.1,0.3,0.1
				c-0.1,0-0.2-0.1-0.3-0.1c0.2,0.1,0.3,0.2,0.5,0.3c-0.1-0.1-0.1-0.1-0.2-0.2c0.2,0.2,0.4,0.4,0.5,0.7c0-0.1-0.1-0.2-0.1-0.2
				c0.2,0.3,0.2,0.6,0.3,1c0-0.1,0-0.2,0-0.3c0,0.2,0,0.5-0.1,0.7c0-0.1,0.1-0.2,0.1-0.3c0,0.1-0.1,0.2-0.2,0.4
				c0.1-0.1,0.1-0.2,0.2-0.2c0,0.1-0.1,0.1-0.1,0.2c-0.1,0.1,0.2-0.2,0.1-0.1c0,0-0.1,0-0.1,0.1c-0.1,0.1,0.4-0.2,0.2-0.1
				c0,0-0.1,0-0.1,0c-0.2,0.1,0.4-0.1,0.2-0.1c0,0-0.1,0-0.1,0c-0.3,0.1-0.7,0.3-0.9,0.5c-0.2,0.2-0.3,0.5-0.2,0.7
				c0.2,0.7,1.1,0.6,1.6,0.5c0.8-0.2,1.5-0.6,1.9-1.3c0.3-0.5,0.3-1,0.3-1.6c0-0.5-0.2-1-0.5-1.4c-0.3-0.5-0.8-0.9-1.4-1.1
				c-0.8-0.3-1.8-0.3-2.6,0c-0.3,0.1-0.7,0.3-0.9,0.5c-0.2,0.2-0.3,0.5-0.2,0.7C93.4,57,94.3,57.1,94.8,56.9L94.8,56.9z"/>
		</g>
	</g>
	<g>
		<g>
			<path class="st1" d="M44.5,75.6c0.1,0,0.1-0.1,0.2-0.1c0,0,0.1,0,0.1,0C44.9,75.4,44.4,75.6,44.5,75.6c0.1-0.1,0.2-0.1,0.2-0.1
				C44.3,75.7,44.4,75.6,44.5,75.6C44.6,75.5,44.6,75.5,44.5,75.6c0.3-0.1-0.4,0-0.2,0C44.4,75.6,44.4,75.6,44.5,75.6
				C44.5,75.6,44.5,75.6,44.5,75.6c0.2-0.1-0.3,0-0.2,0C44.4,75.6,44.4,75.6,44.5,75.6C44.5,75.6,44.6,75.6,44.5,75.6
				c0.2,0-0.2-0.1-0.1,0c0.1,0,0.2,0,0.4,0.1c0,0,0.1,0,0.1,0c0,0-0.3-0.1-0.1,0c0.1,0,0.1,0,0.2,0.1c0.2,0.1,0.5,0.2,0.7,0.3
				c-0.1,0-0.1-0.1-0.2-0.1c0.4,0.2,0.8,0.6,1,1c0-0.1-0.1-0.1-0.1-0.2c0.2,0.3,0.3,0.6,0.3,0.9c0-0.1,0-0.1,0-0.2
				c0,0.2,0,0.3-0.1,0.4c0-0.1,0.1-0.1,0.1-0.2c0,0.1-0.1,0.1-0.1,0.1c0,0,0,0.1-0.1,0.1c-0.1,0.1,0.2-0.2,0.1-0.1
				c0,0-0.1,0.1-0.1,0.1c0.3-0.3,0.2-0.2,0.1-0.1c0,0-0.1,0-0.1,0.1c-0.2,0.1-0.5,0.3-0.5,0.5c-0.1,0.2,0.1,0.4,0.3,0.4
				c0.6,0.2,1.4,0,1.9-0.3c0.5-0.3,1.1-0.8,1.3-1.4c0.1-0.5-0.1-1-0.4-1.4c-0.6-0.9-1.8-1.5-2.9-1.6c-1.1-0.1-2.3,0.1-3.2,0.7
				c-0.2,0.1-0.5,0.3-0.5,0.5c-0.1,0.2,0.1,0.4,0.3,0.4c0.3,0.1,0.6,0.1,0.9,0.1C43.8,75.9,44.2,75.8,44.5,75.6L44.5,75.6z"/>
		</g>
	</g>
	<g>
		<g>
			<path class="st1" d="M64.3,87.1c-0.2,0.3-0.3,0.7-0.2,1.1c0.1,0.3,0.4,0.6,0.7,0.7c0.4,0.2,0.9,0.2,1.3,0.2c0.4,0,0.9,0,1.3-0.1
				c0.3,0,0.6-0.1,0.9-0.2c0.4-0.1,0.7-0.2,1-0.3c0.2-0.1,0.5-0.3,0.5-0.6c0.1-0.6-0.8-0.6-1.2-0.5c-0.4,0.1-0.8,0.1-1.2,0.2
				c-0.1,0-0.1,0-0.2,0c0,0-0.1,0-0.1,0c-0.1,0,0.4,0,0.2,0c-0.1,0-0.2,0-0.3,0c0,0-0.1,0-0.1,0c-0.2,0,0.2,0,0.2,0c0,0-0.1,0-0.1,0
				c-0.1,0-0.2,0-0.3-0.1c0.1,0,0.2,0,0.3,0.1c-0.1,0-0.2-0.1-0.3-0.1c0.1,0,0.1,0.1,0.2,0.1c-0.1-0.1-0.2-0.1-0.2-0.2
				c0,0.1,0.1,0.1,0.1,0.2c-0.1-0.1-0.1-0.2-0.1-0.3c0,0.1,0,0.1,0,0.2c0-0.3,0.1-0.5,0.2-0.8c0.1-0.2-0.1-0.4-0.3-0.5
				c-0.3-0.1-0.6-0.1-0.9-0.1c-0.4,0.1-0.7,0.2-1,0.3c-0.1,0.1-0.2,0.1-0.3,0.2C64.5,86.8,64.4,87,64.3,87.1L64.3,87.1z"/>
		</g>
	</g>
	<g>
		<g>
			<path class="st1" d="M32.8,89.7c-0.1,0.3-0.2,0.8-0.1,1.1c0.1,0.4,0.4,0.6,0.7,0.8c0.3,0.2,0.7,0.3,1,0.3
				c0.5,0.1,0.9,0.1,1.3,0.1c0.5,0,0.9-0.1,1.4-0.2c0.3-0.1,0.7-0.3,0.9-0.5c0.1-0.1,0.4-0.4,0.3-0.6c-0.2-0.6-1.1-0.4-1.6-0.3
				c0.3-0.1,0.4-0.1,0.3-0.1c0,0,0,0,0,0c0,0-0.1,0-0.1,0c-0.1,0-0.1,0-0.2,0c-0.1,0-0.3,0-0.4,0c0,0,0,0-0.1,0c-0.1,0,0,0,0.3,0
				c0,0-0.1,0-0.1,0c-0.1,0-0.1,0-0.2,0c-0.1,0-0.3,0-0.4,0c0.1,0,0.2,0,0.3,0c-0.2,0-0.4-0.1-0.6-0.1c0.1,0,0.2,0.1,0.3,0.1
				c-0.1,0-0.3-0.1-0.4-0.2c0.1,0,0.1,0.1,0.2,0.1c-0.1-0.1-0.2-0.2-0.3-0.3c0,0.1,0.1,0.1,0.1,0.2c-0.1-0.1-0.1-0.3-0.1-0.5
				c0,0.1,0,0.1,0,0.2c0-0.2,0.1-0.4,0.1-0.6c0.1-0.2-0.1-0.4-0.3-0.5c-0.3-0.1-0.6-0.1-0.9-0.1c-0.4,0.1-0.7,0.2-1,0.4
				C33.1,89.3,32.9,89.4,32.8,89.7L32.8,89.7z"/>
		</g>
	</g>
	<g>
		<g>
			<path class="st1" d="M30.1,63.4c-0.2,0.5-0.3,1-0.3,1.6c0,0.4,0.2,0.9,0.6,1c0.5,0.2,1.2,0.2,1.7,0.1c0.4-0.1,0.7-0.2,1.1-0.3
				c0.1-0.1,0.2-0.1,0.4-0.2c0.1-0.1,0.2-0.1,0.2-0.2c0,0,0-0.1,0-0.1C33.6,65,33.5,65,33.4,65c-0.3-0.1-0.6,0-0.9,0
				c0,0-0.1,0-0.1,0c0.3,0,0.4,0,0.2,0c0,0,0,0,0,0c-0.1,0,0.4,0,0.2,0c0,0-0.1,0-0.1,0c0.1,0,0.2,0,0.2,0c-0.1,0-0.2,0-0.2-0.1
				c0.1,0,0.1,0,0.2,0.1c-0.1,0-0.2-0.1-0.3-0.2c0,0,0.1,0.1,0.1,0.1c-0.3-0.3-0.2-0.8-0.2-1.2c0,0,0,0.1,0,0.1
				c0.1-0.3,0.2-0.7,0.3-1c0.1-0.2-0.1-0.2-0.2-0.3c-0.3-0.1-0.6,0-0.9,0c-0.4,0.1-0.7,0.2-1.1,0.3c-0.1,0-0.2,0.1-0.3,0.1
				C30.3,63.1,30.2,63.2,30.1,63.4L30.1,63.4z"/>
		</g>
	</g>
	<g>
		<g>
			<path class="st1" d="M88.5,75.3C88.5,75.3,88.5,75.2,88.5,75.3c0,0,0,0.1-0.1,0.2C88.5,75.4,88.5,75.3,88.5,75.3
				c0,0-0.1,0.1-0.1,0.2C88.4,75.4,88.4,75.4,88.5,75.3c-0.1,0.1-0.2,0.2-0.2,0.3c0,0,0.1-0.1,0.1-0.1c-0.1,0.1-0.2,0.1-0.3,0.2
				c0,0,0.1,0,0.1-0.1c-0.1,0-0.2,0.1-0.4,0.1c0.1,0,0.1,0,0.2,0c-0.1,0-0.3,0-0.4,0.1c0.1,0,0.2,0,0.2,0c-0.1,0-0.2,0-0.4,0
				c0.1,0,0.3,0,0.4,0.1c-0.1,0-0.2-0.1-0.3-0.1c0.2,0.1,0.5,0.2,0.7,0.3c-0.1,0-0.2-0.1-0.3-0.1c0.3,0.1,0.5,0.3,0.7,0.5
				c-0.1-0.1-0.1-0.1-0.2-0.2c0.1,0.1,0.2,0.3,0.3,0.4c0-0.1-0.1-0.2-0.1-0.3c0,0.1,0.1,0.2,0.1,0.2c0-0.1,0-0.2,0-0.3
				c0,0,0,0.1,0,0.1c0-0.1,0-0.2,0.1-0.3c0,0,0,0.1,0,0.1c0.1-0.1,0.1-0.2,0.2-0.3c0,0,0,0.1-0.1,0.1c0.1-0.1,0.2-0.2,0.2-0.2
				c0,0-0.1,0.1-0.1,0.1c0.1-0.1,0.2-0.1,0.3-0.2c0,0,0,0-0.1,0c-0.3,0.1-0.6,0.4-0.7,0.7c-0.1,0.2-0.1,0.6,0.1,0.8
				c0.4,0.6,1.3,0.5,1.9,0.2c0.7-0.3,1.2-1,1-1.7c-0.1-0.2-0.2-0.4-0.3-0.6c-0.2-0.2-0.3-0.4-0.5-0.6c-0.4-0.3-0.8-0.6-1.2-0.7
				c-0.6-0.3-1.3-0.3-2-0.2c-0.5,0.1-0.9,0.4-1.3,0.8c-0.3,0.3-0.4,0.6-0.5,1c-0.1,0.3,0.1,0.6,0.3,0.7c0.2,0.2,0.6,0.3,0.9,0.2
				C87.7,76.4,88.4,76,88.5,75.3L88.5,75.3z"/>
		</g>
	</g>
	<path class="st2" d="M81.6,86.3c45.7-27.4,28.7-42.9,28.7-42.9s13.2,9.8,11.9,21.3c-1.3,11.6-23.7,26.7-39.7,34.3
		c-15.9,7.6-35.4,7.6-49.3-1.7C29.8,95.1,50.7,104.8,81.6,86.3z"/>
</g>
</svg>
